<svg xmlns="http://www.w3.org/2000/svg" viewBox="0 0 140 196" fill="none" aria-hidden="true">
  <title>Card back</title>
  <rect width="140" height="196" rx="10" fill="#5c2d3f"/>
  <rect x="6" y="6" width="128" height="184" rx="6" stroke="#f5e6eb" stroke-opacity="0.35" stroke-width="2" fill="none"/>
  <rect x="12" y="12" width="116" height="172" rx="4" stroke="#f5e6eb" stroke-opacity="0.2" stroke-width="1" fill="none"/>
  <path fill="#f5e6eb" fill-opacity="0.08" d="M12 40h116v8H12zm0 24h116v8H12zm0 24h116v8H12zm0 24h116v8H12zm0 24h116v8H12z"/>
  <circle cx="70" cy="98" r="28" stroke="#f5e6eb" stroke-opacity="0.25" stroke-width="1.5" fill="none"/>
  <circle cx="70" cy="98" r="18" stroke="#f5e6eb" stroke-opacity="0.18" stroke-width="1" fill="none"/>
  <path fill="#f5e6eb" fill-opacity="0.22" d="M70 76c-6 8-14 14-14 22 0 8 6 14 14 14s14-6 14-14c0-8-8-14-14-22z"/>
</svg>
